<mxfile host="65bd71144e">
    <diagram id="i2NxC-65wJUTWMW6SPuN" name="Page-1">
        <mxGraphModel dx="1119" dy="521" grid="1" gridSize="10" guides="1" tooltips="1" connect="1" arrows="1" fold="1" page="1" pageScale="1" pageWidth="827" pageHeight="1169" math="0" shadow="0">
            <root>
                <mxCell id="0"/>
                <mxCell id="1" parent="0"/>
                <mxCell id="11" value="" style="rounded=0;whiteSpace=wrap;html=1;" vertex="1" parent="1">
                    <mxGeometry x="200" y="170" width="527.5" height="435" as="geometry"/>
                </mxCell>
                <mxCell id="2" value="" style="shape=ext;double=1;rounded=0;whiteSpace=wrap;html=1;" vertex="1" parent="1">
                    <mxGeometry x="270" y="280" width="380" height="240" as="geometry"/>
                </mxCell>
                <mxCell id="3" value="pod" style="ellipse;shape=doubleEllipse;whiteSpace=wrap;html=1;aspect=fixed;" vertex="1" parent="1">
                    <mxGeometry x="340" y="360" width="80" height="80" as="geometry"/>
                </mxCell>
                <mxCell id="4" value="pod" style="ellipse;shape=doubleEllipse;whiteSpace=wrap;html=1;aspect=fixed;" vertex="1" parent="1">
                    <mxGeometry x="500" y="360" width="80" height="80" as="geometry"/>
                </mxCell>
                <UserObject label="helloworld" placeholders="1" name="Variable" id="6">
                    <mxCell style="text;html=1;strokeColor=none;fillColor=none;align=center;verticalAlign=middle;whiteSpace=wrap;overflow=hidden;" vertex="1" parent="1">
                        <mxGeometry x="340" y="450" width="80" height="20" as="geometry"/>
                    </mxCell>
                </UserObject>
                <UserObject label="helloworld" placeholders="1" name="Variable" id="7">
                    <mxCell style="text;html=1;strokeColor=none;fillColor=none;align=center;verticalAlign=middle;whiteSpace=wrap;overflow=hidden;" vertex="1" parent="1">
                        <mxGeometry x="500" y="450" width="80" height="20" as="geometry"/>
                    </mxCell>
                </UserObject>
                <mxCell id="15" style="edgeStyle=none;html=1;exitX=0.5;exitY=0.5;exitDx=0;exitDy=0;exitPerimeter=0;entryX=0;entryY=0.5;entryDx=0;entryDy=0;" edge="1" parent="1" source="8" target="14">
                    <mxGeometry relative="1" as="geometry"/>
                </mxCell>
                <mxCell id="16" value="kubectl" style="edgeLabel;html=1;align=center;verticalAlign=middle;resizable=0;points=[];" vertex="1" connectable="0" parent="15">
                    <mxGeometry x="-0.0518" y="2" relative="1" as="geometry">
                        <mxPoint as="offset"/>
                    </mxGeometry>
                </mxCell>
                <mxCell id="8" value="macbook" style="shape=umlActor;verticalLabelPosition=bottom;verticalAlign=top;html=1;" vertex="1" parent="1">
                    <mxGeometry x="70" y="200" width="30" height="60" as="geometry"/>
                </mxCell>
                <mxCell id="10" value="port&lt;br&gt;8080" style="shape=ext;double=1;rounded=1;whiteSpace=wrap;html=1;" vertex="1" parent="1">
                    <mxGeometry x="550" y="260" width="70" height="40" as="geometry"/>
                </mxCell>
                <UserObject label="k8s環境" placeholders="1" name="Variable" id="12">
                    <mxCell style="text;html=1;strokeColor=none;fillColor=none;align=center;verticalAlign=middle;whiteSpace=wrap;overflow=hidden;" vertex="1" parent="1">
                        <mxGeometry x="210" y="180" width="80" height="20" as="geometry"/>
                    </mxCell>
                </UserObject>
                <mxCell id="14" value="master" style="ellipse;shape=doubleEllipse;whiteSpace=wrap;html=1;aspect=fixed;" vertex="1" parent="1">
                    <mxGeometry x="220" y="210" width="60" height="60" as="geometry"/>
                </mxCell>
            </root>
        </mxGraphModel>
    </diagram>
</mxfile>
